<svg version="1.0" xmlns="http://www.w3.org/2000/svg" width="669.333" height="669.333" viewBox="0 0 502 502"><path d="M0 251v193h502V322.1c0-114.9-.1-122-1.8-122.4-1.6-.4-1.6-.5.1-.6.9 0 1.7-.6 1.7-1.1 0-.6-.8-1-1.7-.8-1.4.2-1.9-.5-2.1-3.5-.3-3.2 0-3.7 1.7-3.7 2.1 0 2.1 0 2.1-66V58H0v193zM277.7 62.6c-.3.3-1.2.4-1.9.1-.8-.3-.5-.6.6-.6 1.1-.1 1.7.2 1.3.5zm2.3.9c0 .8-.4 1.5-1 1.5-.5 0-.7-.7-.4-1.5.4-.8.8-1.5 1-1.5.2 0 .4.7.4 1.5zm7 15.5c0 2.7-.3 3-3 3s-3-.3-3-3 .3-3 3-3 3 .3 3 3zm-87 6.5c0 3.2.2 3.5 2.9 3.5 2.9 0 3 .1 3.6 6.5.7 6.3.8 6.5 3.6 6.5 2.6 0 2.9.4 2.9 3.1 0 4.4 2.8 9.9 5.1 9.9 1.5 0 1.9.7 1.9 4 0 3.8-.2 4-2.9 4-2.9 0-3 .1-3.6 6.5-.7 6.3-.8 6.5-3.5 6.5s-2.8.2-3.5 6.5c-.6 6.4-.7 6.5-3.6 6.5-2.7 0-2.9.2-2.9 4 0 2.2-.5 4-1.1 4-.5 0-.7.4-.4 1 .3.5.1 1-.4 1-.6 0-1.1-.5-1.1-1 0-.6-.5-1-1-1-.6 0-.9.3-.9.7.1.5.1 1.5-.1 2.3-.1 1.1-.4.9-1.1-.5-.8-1.8-.9-1.8-.8.5.1 1.4.1 4.2 0 6.2-.1 3.6-.2 3.8-3.6 3.8-2.9 0-3.4.3-3.3 2.2 0 1.3 0 4.2-.1 6.5-.1 4-.3 4.3-3 4.3-2.9 0-2.9.1-3.6 7-.7 6.9-.7 7-3.6 7-2.6 0-2.9.3-2.9 3.5 0 3.3-.2 3.5-3.5 3.5H166v12.9l-3.2.3c-3.5.3-3.5.1-3.7 10-.1 3.7-.2 3.8-3.7 3.8-2.8 0-3.5.4-3.3 1.7.1 1 .1 3.9 0 6.5-.1 4.6-.2 4.8-3.1 4.8-2.8 0-3 .3-3 3.5 0 3.3-.2 3.5-3.5 3.5H139v14h-7v13h-7v13h-2.9c-2.7 0-3 .3-3.3 3.7-.3 3.5-.6 3.8-3.5 4.1l-3.3.3V312h-7v12.9l-3.2.3c-3.3.3-3.3.3-3.6 6.6-.3 6.1-.3 6.2-3.2 6.2-2.8 0-3 .2-3 4.1v4.1l13.3-.4 13.2-.3.3-3.3c.3-2.8.7-3.2 3.3-3.2 2.7 0 2.9-.3 2.9-3.5 0-3.5 1-4.1 5.5-3.6.6 0 1.2-2.7 1.3-6.1.2-3.4.6-6.6.8-7 .3-.4 1.8-.8 3.5-.8h2.9v-13h2.9c2.9 0 3-.1 3.6-6.5.7-6.2.8-6.5 3.5-6.5 2.6 0 2.7-.3 3.6-6.8.8-6.2 1.1-6.7 3.4-6.7 2.2 0 2.5-.5 2.8-3.8.3-3.5.5-3.7 3.8-3.7h3.4v-13h3c1.7 0 3.1-.6 3.2-1.3 0-.6.2-1.7.3-2.2.2-.6.3-3.1.4-5.8.1-4.5.2-4.7 3-4.7s2.9-.2 3.6-6.5c.6-6.3.8-6.5 3.5-6.5s2.8-.2 3.5-6.5c.6-6.4.7-6.5 3.6-6.5 2.7 0 2.9-.2 2.9-4s.2-4 2.9-4c2.9 0 3-.1 3.6-6.5.7-6.3.8-6.5 3.5-6.5s2.8-.2 3.5-6.5c.6-6.3.8-6.5 3.5-6.5s2.8-.2 3.4-7c.7-6.9.8-7 3.7-7 2.6 0 2.9-.3 2.9-3.4 0-3 .3-3.5 2.8-3.8 2-.2 2.8-.9 3-2.8.2-2.4.2-2.5-1-.4-.7 1.2-1.9 1.9-2.6 1.7-.8-.3-.1-1.4 1.8-3.1 2.2-1.9 3-3.5 3-5.9V149h13v3.4c0 4.5.9 6.8 2.4 5.9 1.7-1.1 3.6-1.2 3.6-.3 0 .5-1 1-2.2 1.2-1.4.2-2.4 1.1-2.5 2.3-.2 1.1 0 1.4.3.7.3-.6 1.1-.9 1.7-.5.7.4 1.7.8 2.2.8.6 0 1.1 1.7 1.3 3.7.3 3.6.5 3.8 3.8 3.8h3.4v12.9l3.3.3 3.2.3.3 6.7c.3 6.8.3 6.8 3.2 6.8 2.5 0 2.9.4 3.2 3.2.3 2.9.7 3.3 3.6 3.6l3.2.3V217h7v7c0 6.5.1 6.9 2.3 6.8 4.5-.2 4.7.1 4.7 5.2 0 2.7.5 5 1 5 .6 0 1-.5 1-1.2 0-.9.3-.9 1.1-.1 1.3 1.3.3 3.6-1.2 2.8-.5-.4-.9-.1-.9.5s1 1 2.3.8c1.9-.3 2.2.2 2.5 3.4.3 3.6.5 3.8 3.7 3.8h3.4l.3 6.7c.2 5.1.6 6.7 1.7 6.5.7-.1 2.2 0 3.2.3 1.6.5 1.9 1.6 1.9 7.1v6.4h3.5c3.3 0 3.5.2 3.5 3.5 0 3.2.2 3.5 3 3.5 2.9 0 3 .2 3.2 4.7 0 2.7.1 5.6 0 6.5-.1 1.4.6 1.8 3.3 1.8h3.5v14h3.5c3.3 0 3.5.2 3.5 3.5 0 3.2.2 3.5 2.9 3.5 2.9 0 3 .1 3.6 6.5.7 6.2.8 6.5 3.5 6.5 2.6 0 2.7.3 3.6 6.7.8 6.3 1.1 6.8 3.4 6.8s2.6.4 3.4 6.7c.8 6.6.9 6.8 3.7 6.8 2.6 0 2.9.3 2.9 3.5s.3 3.5 2.9 3.5 2.9.3 3.5 4.6c.3 2.6.6 5.7.6 7v2.4H180v-3.5c0-3.2.2-3.5 3-3.5h2.9l.3-7.3.3-7.2 3.3.3c2.2.1 3.2-.2 3.1-1-.1-.7-.1-3.8 0-6.8.1-5.3.2-5.5 2.9-5.6 1.5 0 25.8-.1 54-.2l51.2-.2v-18.9l-3.2-.3c-3-.3-3.3-.6-3.6-4.1-.3-3.4-.6-3.7-3.3-3.7-2.7 0-2.9-.2-3-4.3-.1-2.3-.2-5.1-.3-6.2-.1-1.5-.9-2.1-3.3-2.3l-3.3-.3V292h-3.5c-3.4 0-3.5-.1-3.5-4.3 0-6-1-8.8-2.9-8.5-2.7.4-4.1-1.2-4.1-4.8 0-3.1-.3-3.4-2.9-3.4-2.8 0-2.9-.2-3.6-6.5-.6-6.4-.7-6.5-3.6-6.5-2.7 0-2.9-.3-3.1-3.8-.1-2-.1-4.9 0-6.5.2-2.5-.1-2.7-3.3-2.7-3.4 0-3.5-.1-3.5-4 0-3.8-.2-4-2.9-4-2.9 0-3-.1-3.6-6.5l-.7-6.5H227v6.5c0 6.8 0 6.8-5.2 6.8-1.5 0-1.8 1-1.8 6.8v6.9h-7v13h-3c-1.9 0-3 .5-3.1 1.5-.1.8-.3 1.9-.4 2.5-.1.5-.3 1.7-.4 2.5-.1 1-1.2 1.5-3.1 1.5h-3v13h-7v12.9l-3.2.3-3.3.3-.3 6.7c-.3 6.8-.3 6.8-3.2 6.8-2.6 0-3 .4-3 2.9 0 3.1-1.3 4.7-4.4 5.2-1.1.2-2.1 1.1-2.4 1.9-.4 1.2-.2 1.3.9.3.7-.7 1.8-1.3 2.3-1.3.6 0 0 .7-1.2 1.6-1.6 1.1-2.2 2.5-2.2 5.5 0 3.8-.1 3.9-3.5 3.9H166v14h-7v12.9l-3.2.3c-3.3.3-3.3.3-3.6 6.5-.3 6.2-.3 6.3-3.2 6.3-2.6 0-2.9.4-3.2 3.7-.3 3.6-.5 3.8-4 4.1-3.1.3-3.8.7-3.9 2.5-.1 2.1-.1 2.1-.7.2-.5-1.3-1.8-2.1-3.6-2.3-2.2-.3-2.7 0-2.3 1.1.3.7.1 2-.4 2.8-.7 1.1-.9 1-.9-.6-.1-1.9-.1-1.9-1.3.1-.7 1.2-1.7 1.9-2.4 1.7-.8-.3-.3-1.3 1.4-2.9 2-1.8 2.2-2.4.9-2.4-.9 0-1.6.7-1.6 1.6 0 1.3-.6 1.5-2.7.9-1.5-.3-3.1-1.2-3.5-1.8-.4-.7-.6.2-.4 2 .2 2.1-.1 3-.9 2.7-.7-.3-1.1-1.7-.9-3.2.2-1.5.1-2-.2-1.1-.3.9-2.4 2-4.7 2.6-2.3.6-5.1 1.4-6.2 1.8-1.6.5-1.7.5-.5-.4 1.5-1 2.3-5.1 1-5.1-1.5 0-1.9 1.4-.9 2.7.9 1 .8 1.3-.5 1.3-.9 0-1.6.4-1.6 1 0 .7-14.2 1-40.5 1H24v-3c0-2.6.3-3 2.9-3 2.9 0 2.9-.1 3.6-7 .7-6.8.8-7 3.5-7s2.8-.2 3.5-6.5c.6-6.3.8-6.5 3.5-6.5s2.8-.2 3.4-7c.7-6.9.8-7 3.7-7 2.7 0 2.9-.3 2.9-3.5s.2-3.5 2.9-3.5c2.9 0 3-.1 3.6-6.5.7-6.3.8-6.5 3.5-6.5s2.8-.2 3.5-7c.7-6.9.7-7 3.6-7 2.6 0 2.9-.3 2.9-3.4 0-1.9.7-3.9 1.7-4.7 1.1-1 1.4-1 .9-.2-.4.7-.2 1.3.3 1.3.6 0 1.1-.6 1.1-1.3 0-.8.4-.7 1 .3.5.8 1 1 1.1.5.1-.6.3-1.5.4-2 .2-.6.3-3.1.4-5.8.1-4.7.1-4.7 3.6-4.7H85v-14h3.4c2.8 0 3.3-.4 3.3-2.3.1-10.8.1-10.7 3.3-10.7 2.8 0 3-.3 3-3.5 0-3.3.2-3.5 3.5-3.5h3.5v-14h7v-13h3.6c3.2 0 3.5-.2 3.3-2.8-.1-1.5-.1-4.4-.1-6.5.2-3.4.4-3.7 3.1-3.7s3-.3 3.3-3.8c.3-3.4.6-3.7 3.6-4l3.2-.3V190h7v-12.9l3.3-.3c2.6-.2 3.2-.7 3.3-2.8.4-10.7.2-10 3.3-10 2.7 0 3-.3 3.3-3.8.3-3.4.6-3.7 3.6-4l3.2-.3V143h7v-7.1c0-6.1.2-7 1.8-6.8 5 .5 5.2.2 5.2-6.6V116h2.9c3 0 4.5-2.1 3.9-5.1-.2-.9.9-1.5 3-1.7l3.2-.3V96h7V82h3.5c3.3 0 3.5.2 3.5 3.5zm90 3.9c0 .3-.4.8-1 1.1-.5.3-1 .1-1-.4 0-.6.5-1.1 1-1.1.6 0 1 .2 1 .4zm4 1.6c0 .5-.4 1-1 1-.5 0-1-.5-1-1 0-.6.5-1 1-1 .6 0 1 .4 1 1zm-2.7 2.4c.4 1 0 1.4-1.4 1.3-2.2-.1-2.5-1.3-.6-2 .6-.3 1.3-.6 1.3-.6.1-.1.4.5.7 1.3zM219.5 112c0 .7-.7 1.5-1.5 1.8-.8.3-1.2.1-.8-.3.4-.5.3-1.4-.3-2.1-.7-.9-.6-1.2.8-1 1 .2 1.8.9 1.8 1.6zm87.5.4c0 1.5-.7 2.6-1.9 2.9-2.5.6-3.1 0-3.1-3 0-1.8.5-2.3 2.5-2.3s2.5.5 2.5 2.4zm6.3 12.4c.3-.7.4-.3.4.9-.1 1.2-.5 1.9-.9 1.7-.4-.3-.8 0-.8.5 0 .6-.4 1.1-.9 1.1-.4 0-.7-1.2-.5-2.8.2-1.5.1-1.9-.2-1-.3 1-1 1.8-1.5 1.8-.6 0-.5-.9.2-2.2 1.1-2 1.2-2 2.4-.4 1 1.3 1.4 1.4 1.8.4zm62.7 14.7c0 3.2.2 3.5 3 3.5s3 .3 3 3.5c0 3.3.2 3.5 3.5 3.5h3.5v12.9l3.3.3 3.2.3.3 6.6.3 6.6 6.4.1 6.5.1V163h3.5c3.3 0 3.5-.2 3.5-3.5 0-2.5.4-3.5 1.6-3.5 2.7 0 4.5-2.8 5.1-8 .5-4.7.8-5 3.4-5 2.4 0 2.8-.4 3.1-3.3l.3-3.2 17.3-.3 17.2-.2-.2 60.7-.3 60.8-13.7.3-13.8.3-.1-5.8c-.1-3.2-.1-6.2 0-6.7s-.5-.6-1.3-.3c-.9.4-1.9.1-2.2-.5-.5-.8-1-.5-1.6.8-.8 1.8-.8 1.8-.5-.1.2-1.5.9-1.9 2.8-1.7 2.5.3 2.6.1 2.5-4.2-.1-5.2-1.7-7.6-3.9-5.7-1.2.9-1.4.7-1.4-1.4 0-3 1.4-4.2 3-2.5.9 1 .8 1.2-.5.7-1-.4-1.8-.2-1.8.3 0 .6.4 1 .9 1s1.5.2 2.3.5c.9.4 1.4-.4 1.4-2.5.1-1.6-.2-3-.7-3-.5 0-.9-.5-.9-1.1 0-.5.5-.7 1-.4.6.3 1-.1 1-.9 0-1.2-.7-1.4-3.2-.9-2.3.5-2.9.3-2.4-.6.5-.7 1.4-1 2.2-.7 1.8.7 3.5-2.6 3.2-6.4-.1-2-.7-2.9-1.5-2.6-.7.3-1.6 0-1.9-.6-.5-.8-1-.5-1.6.8-.8 1.8-.8 1.8-.5-.1.2-1.5.9-1.9 2.8-1.7 2.5.3 2.6.1 2.5-4.2-.1-5.2-1.7-7.6-3.9-5.7-1.2.9-1.4.7-1.4-1.5 0-1.4.2-2.2.6-1.6.3.5 1.6 1.2 2.8 1.6 1.7.5 2.1.3 1.9-1.1-.2-.9-.9-1.9-1.6-2.1-.7-.3-1 0-.6.7.4.6.3 1.1-.3 1.1-.5 0-1.3-.5-1.6-1-.3-.6-2.4-1-4.6-1H423v13h-3.5c-3.3 0-3.5.2-3.5 3.5 0 2.1-.5 3.5-1.2 3.6-.7.1-2 .2-2.8.3-1.1.1-1.8 2-2.4 6.8l-.9 6.8h-12.5l-.7-6.5c-.6-6.4-.7-6.5-3.6-6.5-2.7 0-2.9-.2-2.9-4 0-3.9-.1-4-3.5-4H382v-13h-3.5c-3.4 0-4.3-1.2-3.6-5.3.1-.9-4.6-.9-5.3.1-.3.6-1 27.2-.7 30.9.1.8 1.4 1.3 3.1 1.3 2.7 0 3 .3 3 3s-.3 3-3 3-3-.3-3-3c0-2.8-.3-3-3.5-3H362v-14h-7v-13h-2.9c-2.9 0-3-.1-3.6-6.5-.7-6.3-.8-6.5-3.6-6.5-2.6 0-2.9-.3-2.9-3.5 0-2.1-.5-3.5-1.2-3.6-.7-.1-2.2-.2-3.3-.3-1.8-.1-2-.9-2.3-6.9l-.3-6.7h-3.6c-2.8 0-3.4-.3-2.9-1.6.3-.9.6-2.2.6-3 0-.9 1.1-1.4 3-1.4 2.7 0 3 .3 3 3s.3 3 3 3h3v-27h35v3.5zm-52.8 6.7c-.9.9-1.2.7-1.2-1.2s.3-2.1 1.2-1.2c.9.9.9 1.5 0 2.4zm3.9-2.3c.7-1.1.9-1 .9.3 0 1-.7 1.8-1.5 1.8s-1.5-.8-1.4-1.8c0-1.2.2-1.3.6-.3.5 1.1.7 1.1 1.4 0zm.4 4.1c.3.5.1 1-.4 1-.6 0-1.1-.5-1.1-1 0-.6.2-1 .4-1 .3 0 .8.4 1.1 1zm90.1 5.8c-1 1.1-1.6 1.2-1.6.4 0-.7.5-1.2 1-1.2.6 0 1-.8 1.1-1.8 0-1.1.2-1.3.6-.4.3.8-.2 2.1-1.1 3zM223 158.2c0 .4-.7.8-1.5.8s-1.5-.4-1.5-.8c0-.5.7-.9 1.5-.9s1.5.4 1.5.9zm-26.9 4.1c-1 .9-1.1.8-.5-.6.3-1 .9-1.5 1.2-1.2.3.3 0 1.1-.7 1.8zM371.5 194c.3.5.1 1-.4 1-.6 0-1.1-.5-1.1-1 0-.6.2-1 .4-1 .3 0 .8.4 1.1 1zm128.5 8c0 .5-.2 1-.4 1-.3 0-.8-.5-1.1-1-.3-.6-.1-1 .4-1 .6 0 1.1.4 1.1 1zm-65.5 2c-.3.5-1.1 1-1.6 1-.6 0-.7-.5-.4-1 .3-.6 1.1-1 1.6-1 .6 0 .7.4.4 1zm.5 4.7c0 .5-1.2.9-2.7 1-1.9.1-2.2-.1-1.2-.8 1.7-1.1 3.9-1.2 3.9-.2zm0 9.6c0 .5-.4.5-1 .2-.5-.3-1-1.4-1-2.3 0-1.5.2-1.5 1-.2.5.8 1 1.9 1 2.3zm-3.1.1c.7.8.8 1.7.3 2-.6.3-1.2-.3-1.5-1.4-.6-2.4-.4-2.5 1.2-.6zm1.1 7c0 .2-.7.7-1.6 1-.8.3-1.2.2-.9-.4.6-1 2.5-1.4 2.5-.6zm1.5 10.6c-.3.5-1.1 1-1.6 1-.6 0-.7-.5-.4-1 .3-.6 1.1-1 1.6-1 .6 0 .7.4.4 1zm-140.8 5.2c-.3.7-.5.2-.5-1.2s.2-1.9.5-1.3c.2.7.2 1.9 0 2.5zm88.3-.2c0 2.7-.3 3-3 3s-3-.3-3-3 .3-3 3-3 3 .3 3 3zm53-.3c0 .5-1.2.9-2.7 1-1.9.1-2.2-.1-1.2-.8 1.7-1.1 3.9-1.2 3.9-.2zm0 9.6c0 .5-.4.5-1 .2-.5-.3-1-1.4-1-2.3 0-1.5.2-1.5 1-.2.5.8 1 1.9 1 2.3zm-47.8 5.6c-.6 1.4-.7 1.3-1-.2-.4-1.8-.4-1.8-1.8 0-.7 1-1.4 1.3-1.4.6 0-.6.7-1.9 1.6-2.8 2-1.9 3.7-.3 2.6 2.4zM402 275c0 2.7-.3 3-3 3s-3-.3-3-3 .3-3 3-3 3 .3 3 3zm-130 7.5c.9 1 .9 1.5.1 1.5-.6 0-1.1-.5-1.1-1.1 0-.6-.7-.8-1.6-.5-.8.3-1.2.2-.9-.4.9-1.4 2.1-1.2 3.5.5zm134 3.7c0 .4-.7.8-1.5.8s-1.5-.4-1.5-.8c0-.5.7-.9 1.5-.9s1.5.4 1.5.9zm2.5 1.7c.1 1.1-.4 1.7-1.1 1.4-.6-.2-.9-1.3-.7-2.4.6-2.3 1.6-1.7 1.8 1zM74 294c0 .5-.2 1-.4 1-.3 0-.8-.5-1.1-1-.3-.6-.1-1 .4-1 .6 0 1.1.4 1.1 1zm344.7 16.2c-.3.8-.6.5-.6-.6-.1-1.1.2-1.7.5-1.3.3.3.4 1.2.1 1.9zM429 322c0 2.7-.3 3-3 3s-3-.3-3-3 .3-3 3-3 3 .3 3 3zm-298.5 5c.3.5.1 1-.4 1-.6 0-1.1-.5-1.1-1 0-.6.2-1 .4-1 .3 0 .8.4 1.1 1zm-2.8 2c.1 1.1-.2 2-.7 2-.6 0-.7-1.7-.1-3.8.3-.8.7.1.8 1.8zm307.3 7.7c0 .5-1.2.9-2.7 1-1.9.1-2.2-.1-1.2-.8 1.7-1.1 3.9-1.2 3.9-.2zm-244 19.6c0 .2-.8.3-1.8.3s-1.9-.6-1.9-1.3c0-.8.6-.9 1.9-.2 1 .5 1.8 1.1 1.8 1.2zm255.5-.3c.3.6-.1.7-.9.4-1.8-.7-2.1-1.4-.7-1.4.6 0 1.3.4 1.6 1zm9.5 13c0 2.7-.3 3-3 3s-3-.3-3-3 .3-3 3-3 3 .3 3 3zm-320 13.6c0 .2-.7.4-1.5.4s-1.5-.4-1.5-1c0-.5.7-.7 1.5-.4.8.4 1.5.8 1.5 1zm-12.5 2.2c-.3.3-1.1 0-1.8-.7-.9-1-.8-1.1.6-.5 1 .3 1.5.9 1.2 1.2zm13.2.8c-.3.3-1.2.4-1.9.1-.8-.3-.5-.6.6-.6 1.1-.1 1.7.2 1.3.5zm328.8 4.4c.3.5.1 1-.4 1-.6 0-1.1-.5-1.1-1 0-.6.2-1 .4-1 .3 0 .8.4 1.1 1zm4.2 1.6c-.3.3-1.2.4-1.9.1-.8-.3-.5-.6.6-.6 1.1-.1 1.7.2 1.3.5zM476 403c0 2.5-.4 3-2.5 3s-2.5-.5-2.5-3 .4-3 2.5-3 2.5.5 2.5 3z"/><path d="M110 381.6c0 1.4 4.3 1.1 4.8-.4.2-.7-.6-1.1-2.2-1-1.4.1-2.6.7-2.6 1.4zm12-1.2c0 .2.9.6 2 .9 1.1.3 2 .1 2-.4s-.9-.9-2-.9-2 .2-2 .4z"/></svg>