<svg width="9" height="12" fill="none" xmlns="http://www.w3.org/2000/svg"><path d="M7.896 10.648c.155 0 .277.045.368.136.09.09.136.208.136.352V12H.752v-.488a.881.881 0 01.264-.608l3.672-3.688c.304-.31.581-.605.832-.888.25-.288.464-.576.64-.864.176-.288.312-.579.408-.872.096-.299.144-.616.144-.952 0-.336-.053-.63-.16-.88a1.704 1.704 0 00-1.088-1 2.491 2.491 0 00-.808-.128c-.293 0-.563.043-.808.128a2.175 2.175 0 00-.656.36c-.187.15-.344.328-.472.536a2.159 2.159 0 00-.272.688c-.064.187-.152.312-.264.376-.107.059-.259.075-.456.048L.984 3.64c.075-.523.219-.984.432-1.384.219-.405.49-.744.816-1.016.33-.272.707-.477 1.128-.616A4.204 4.204 0 014.728.408c.485 0 .939.072 1.36.216.421.144.787.355 1.096.632.31.272.552.605.728 1 .176.395.264.843.264 1.344 0 .427-.064.824-.192 1.192-.128.363-.301.71-.52 1.04-.219.33-.472.653-.76.968a24.55 24.55 0 01-.904.952L2.776 10.84c.213-.059.43-.104.648-.136a3.76 3.76 0 01.632-.056h3.84z" fill="#000"/></svg>