<svg width="9" height="12" viewBox="0 0 9 12" fill="none" xmlns="http://www.w3.org/2000/svg">
<path d="M7.896 10.648C8.05067 10.648 8.17333 10.6933 8.264 10.784C8.35467 10.8747 8.4 10.992 8.4 11.136V12H0.752V11.512C0.752 11.4107 0.773333 11.3067 0.816 11.2C0.858667 11.0933 0.925333 10.9947 1.016 10.904L4.688 7.216C4.992 6.90667 5.26933 6.61067 5.52 6.328C5.77067 6.04 5.984 5.752 6.16 5.464C6.336 5.176 6.472 4.88533 6.568 4.592C6.664 4.29333 6.712 3.976 6.712 3.64C6.712 3.304 6.65867 3.01067 6.552 2.76C6.44533 2.504 6.29867 2.29333 6.112 2.128C5.93067 1.96267 5.71467 1.84 5.464 1.76C5.21333 1.67467 4.944 1.632 4.656 1.632C4.36267 1.632 4.09333 1.67467 3.848 1.76C3.60267 1.84533 3.384 1.96533 3.192 2.12C3.00533 2.26933 2.848 2.448 2.72 2.656C2.592 2.864 2.50133 3.09333 2.448 3.344C2.384 3.53067 2.296 3.656 2.184 3.72C2.07733 3.77867 1.92533 3.79467 1.728 3.768L0.984 3.64C1.05867 3.11733 1.20267 2.656 1.416 2.256C1.63467 1.85067 1.90667 1.512 2.232 1.24C2.56267 0.968 2.93867 0.762666 3.36 0.624C3.78133 0.479999 4.23733 0.407999 4.728 0.407999C5.21333 0.407999 5.66667 0.479999 6.088 0.624C6.50933 0.767999 6.87467 0.978666 7.184 1.256C7.49333 1.528 7.736 1.86133 7.912 2.256C8.088 2.65067 8.176 3.09867 8.176 3.6C8.176 4.02667 8.112 4.424 7.984 4.792C7.856 5.15467 7.68267 5.50133 7.464 5.832C7.24533 6.16267 6.992 6.48533 6.704 6.8C6.42133 7.11467 6.12 7.432 5.8 7.752L2.776 10.84C2.98933 10.7813 3.20533 10.736 3.424 10.704C3.64267 10.6667 3.85333 10.648 4.056 10.648H7.896Z" fill="black"/>
</svg>
