<svg width="9" height="13" viewBox="0 0 9 13" fill="none" xmlns="http://www.w3.org/2000/svg">
<path d="M1.04 3.64C1.11467 3.11733 1.25867 2.656 1.472 2.256C1.68533 1.85067 1.95467 1.512 2.28 1.24C2.61067 0.968 2.98667 0.762666 3.408 0.624C3.83467 0.479999 4.29333 0.407999 4.784 0.407999C5.26933 0.407999 5.71733 0.477332 6.128 0.615999C6.53867 0.754666 6.89067 0.951999 7.184 1.208C7.48267 1.464 7.71467 1.77333 7.88 2.136C8.04533 2.49867 8.128 2.90133 8.128 3.344C8.128 3.70667 8.08 4.032 7.984 4.32C7.89333 4.60267 7.76 4.85067 7.584 5.064C7.41333 5.27733 7.20533 5.45867 6.96 5.608C6.71467 5.75733 6.44 5.88 6.136 5.976C6.88267 6.168 7.44267 6.49867 7.816 6.968C8.19467 7.432 8.384 8.01333 8.384 8.712C8.384 9.24 8.28267 9.71467 8.08 10.136C7.88267 10.5573 7.61067 10.9173 7.264 11.216C6.91733 11.5093 6.512 11.736 6.048 11.896C5.58933 12.0507 5.096 12.128 4.568 12.128C3.96 12.128 3.44 12.0533 3.008 11.904C2.576 11.7493 2.21067 11.5387 1.912 11.272C1.61333 11.0053 1.368 10.6907 1.176 10.328C0.984 9.96 0.821333 9.56267 0.688 9.136L1.304 8.88C1.464 8.81067 1.61867 8.792 1.768 8.824C1.92267 8.856 2.03467 8.944 2.104 9.088C2.17333 9.23733 2.25867 9.416 2.36 9.624C2.46667 9.832 2.61067 10.032 2.792 10.224C2.97333 10.416 3.20267 10.5787 3.48 10.712C3.76267 10.8453 4.12 10.912 4.552 10.912C4.952 10.912 5.30133 10.848 5.6 10.72C5.904 10.5867 6.15467 10.416 6.352 10.208C6.55467 10 6.70667 9.768 6.808 9.512C6.90933 9.256 6.96 9.00267 6.96 8.752C6.96 8.44267 6.92 8.16 6.84 7.904C6.76 7.648 6.61067 7.42667 6.392 7.24C6.17333 7.05333 5.872 6.90667 5.488 6.8C5.10933 6.69333 4.62133 6.64 4.024 6.64V5.608C4.51467 5.60267 4.93067 5.54933 5.272 5.448C5.61867 5.34667 5.89867 5.208 6.112 5.032C6.33067 4.856 6.488 4.64533 6.584 4.4C6.68533 4.15467 6.736 3.88267 6.736 3.584C6.736 3.25333 6.68267 2.96533 6.576 2.72C6.47467 2.47467 6.33333 2.272 6.152 2.112C5.97067 1.952 5.75467 1.832 5.504 1.752C5.25867 1.672 4.992 1.632 4.704 1.632C4.416 1.632 4.14667 1.67467 3.896 1.76C3.65067 1.84533 3.432 1.96533 3.24 2.12C3.05333 2.26933 2.896 2.448 2.768 2.656C2.64 2.864 2.54933 3.09333 2.496 3.344C2.42667 3.53067 2.33867 3.656 2.232 3.72C2.13067 3.77867 1.98133 3.79467 1.784 3.768L1.04 3.64Z" fill="black"/>
</svg>
