<svg width="24" height="25" fill="none" xmlns="http://www.w3.org/2000/svg"><path fill-rule="evenodd" clip-rule="evenodd" d="M11.95.896c6.488 0 11.755 5.268 11.755 11.755 0 6.488-5.267 11.755-11.755 11.755C5.463 24.406.195 19.14.195 12.651.195 6.164 5.463.896 11.95.896zm0 4.409c-1.995 0-2.245.008-3.029.044-.782.035-1.316.16-1.783.341a3.601 3.601 0 00-1.301.848 3.6 3.6 0 00-.848 1.3c-.181.468-.306 1.002-.341 1.784-.036.784-.045 1.034-.045 3.03 0 1.995.009 2.245.045 3.028.035.782.16 1.316.341 1.784.188.483.44.893.848 1.301.408.408.818.66 1.3.847.468.182 1.002.306 1.784.342.784.036 1.034.044 3.03.044 1.994 0 2.245-.008 3.028-.044.782-.036 1.316-.16 1.784-.342a3.603 3.603 0 001.3-.847c.41-.409.66-.818.848-1.301.182-.468.306-1.002.342-1.784.035-.783.044-1.034.044-3.029 0-1.995-.009-2.245-.044-3.029-.036-.782-.16-1.316-.342-1.783a3.601 3.601 0 00-.847-1.301 3.602 3.602 0 00-1.301-.848c-.468-.181-1.002-.306-1.784-.341-.783-.036-1.034-.044-3.029-.044zm0 1.323c1.962 0 2.194.008 2.969.043.716.033 1.105.152 1.364.253.343.133.588.293.845.55.257.257.416.501.55.844.1.26.22.648.252 1.365.036.774.043 1.007.043 2.968 0 1.962-.007 2.194-.043 2.969-.032.716-.152 1.105-.253 1.364a2.274 2.274 0 01-.55.845 2.275 2.275 0 01-.844.55c-.259.1-.648.22-1.364.252-.775.036-1.007.043-2.969.043s-2.194-.007-2.968-.043c-.717-.032-1.106-.152-1.365-.253a2.276 2.276 0 01-.844-.55 2.276 2.276 0 01-.55-.844c-.1-.259-.22-.648-.253-1.364-.035-.775-.043-1.007-.043-2.969 0-1.961.008-2.194.043-2.968.033-.717.152-1.106.253-1.365.133-.343.292-.587.55-.844a2.27 2.27 0 01.844-.55c.26-.1.648-.22 1.365-.253.774-.035 1.007-.043 2.968-.043zm0 2.25a3.773 3.773 0 100 7.546 3.773 3.773 0 000-7.545zm0 6.222a2.449 2.449 0 110-4.898 2.449 2.449 0 010 4.898zm4.804-6.37a.882.882 0 11-1.764 0 .882.882 0 011.764 0z" fill="#000"/></svg>