<svg width="25" height="25" fill="none" xmlns="http://www.w3.org/2000/svg"><path fill-rule="evenodd" clip-rule="evenodd" d="M12.349.896C5.857.896.594 6.16.594 12.651c0 4.98 3.098 9.237 7.47 10.95-.102-.93-.195-2.36.042-3.376.213-.917 1.378-5.843 1.378-5.843s-.352-.704-.352-1.745c0-1.634.948-2.854 2.127-2.854 1.003 0 1.488.753 1.488 1.655 0 1.009-.642 2.517-.974 3.914-.277 1.17.587 2.124 1.74 2.124 2.09 0 3.696-2.203 3.696-5.382 0-2.815-2.022-4.783-4.91-4.783-3.345 0-5.308 2.509-5.308 5.101 0 1.01.39 2.094.875 2.683.096.116.11.218.082.337l-.327 1.333c-.051.215-.17.261-.393.157-1.468-.683-2.386-2.83-2.386-4.553 0-3.708 2.694-7.114 7.767-7.114 4.077 0 7.246 2.906 7.246 6.79 0 4.05-2.554 7.31-6.1 7.31-1.19 0-2.31-.618-2.693-1.349 0 0-.59 2.244-.733 2.794-.265 1.021-.982 2.301-1.46 3.082 1.1.34 2.268.524 3.48.524 6.492 0 11.755-5.263 11.755-11.755C24.104 6.16 18.84.896 12.348.896z" fill="#000"/></svg>