<svg width="24" height="24" fill="none" xmlns="http://www.w3.org/2000/svg"><path fill-rule="evenodd" clip-rule="evenodd" d="M11.978 23.495H12h-.022zm.084 0h-.008.023-.015zm-.12 0h.025-.024zm.16 0h-.014.024-.01zm-.19 0h.015-.016zm.228 0h-.013.016-.003zm.031-.001h-.006.022-.016zm-.304 0h.022-.022zm.343 0h-.013.027-.014zm-.38 0h.027-.027zm.42-.001h-.018.025-.007zm-.453 0h.025-.025zm-.04-.001h.022-.023zm.523 0h-.004.022-.018zm-.562-.001h.03-.03zm.6 0h-.012.03-.017zm.041-.001h-.02.032-.012zm-.675 0h.031-.031zm-.025-.001h.023-.041.018zm.735 0h-.021.04-.02zm.033-.001h-.012.035-.023zm-.822 0h.034-.034zm-.034-.002l.036.001h-.02l-.016-.001zm.896 0l-.02.001.036-.001h-.016zm-.928-.002l.035.002-.027-.001h-.008zm.969 0l-.027.002.035-.002h-.008zm-1.016-.002l.038.002h-.01l-.028-.002zm1.042.002h-.01l.038-.002-.028.002zm-1.075-.003l.04.002-.02-.001-.02-.001zm1.116 0l-.019.002.04-.002h-.021zm-1.148-.002l.04.002-.029-.001h-.011zm1.189 0l-.028.002.04-.002h-.012zm.033 0l-.036.001.032-.002.037-.002-.033.002zm-1.239 0l.032.001-.036-.002-.033-.002.037.002zm1.272-.003l-.016.001.04-.002-.024.001zm-1.334-.001l.04.002h-.015l-.025-.002zm-.032-.002l.04.002-.025-.001-.015-.001zm1.407 0l-.025.002.04-.002h-.015zm-1.428-.001l.037.002-.034-.002-.034-.002.032.002zm1.462 0l-.034.002.036-.002.031-.002-.033.002zm.032-.002h-.012l.038-.002-.026.002zm-1.55-.002l.039.003-.012-.001-.027-.002zm-.031-.002l.037.002-.02-.001-.017-.001zm1.622.001l-.02.001.037-.002-.017.001zm-1.653-.003l.034.002-.027-.002h-.007zm1.693 0l-.027.002.035-.003-.008.001zm-1.735-.004l.03.003h-.007l-.023-.003zm1.762.002h-.008l.03-.002-.022.002zm.04-.003l-.015.001.03-.002-.015.001zm-1.835-.001l.03.002h-.014l-.016-.002zm-.031-.003l.026.002-.018-.001h-.008zm1.905 0l-.018.002.026-.002h-.008zm.068-.005h-.007l.018-.001-.011.001zM11 23.449l.018.002-.007-.001-.011-.001zm-.032-.003l.013.001h-.013zm2.114 0l-.009.001h.014-.005zm-2.857-.116C4.795 22.481.637 17.802.637 12.165.637 5.927 5.73.862 12 .862s11.363 5.065 11.363 11.303c0 5.637-4.158 10.316-9.588 11.165v-7.898h2.648l.504-3.267h-3.152v-2.12c0-.894.44-1.765 1.852-1.765h1.433V5.498s-1.3-.22-2.543-.22c-2.596 0-4.292 1.564-4.292 4.397v2.49H7.339v3.267h2.886v7.898z" fill="#000"/></svg>