<svg width="24" height="25" fill="none" xmlns="http://www.w3.org/2000/svg"><path fill-rule="evenodd" clip-rule="evenodd" d="M12.05.896c6.488 0 11.755 5.268 11.755 11.755 0 6.488-5.267 11.755-11.755 11.755S.295 19.14.295 12.651C.295 6.164 5.562.896 12.05.896zM8.375 19.257v-9.18H5.323v9.18h3.052zm11.002 0v-5.264c0-2.82-1.505-4.131-3.513-4.131-1.619 0-2.344.89-2.75 1.515v-1.3h-3.05c.04.862 0 9.18 0 9.18h3.05v-5.126c0-.275.02-.549.101-.745.22-.548.723-1.116 1.566-1.116 1.103 0 1.545.842 1.545 2.076v4.911h3.051zM6.87 5.651c-1.044 0-1.726.687-1.726 1.586 0 .881.662 1.587 1.686 1.587h.02c1.064 0 1.726-.706 1.726-1.587-.02-.9-.662-1.586-1.706-1.586z" fill="#000"/></svg>