<svg width="26" height="26" fill="none" xmlns="http://www.w3.org/2000/svg"><path fill-rule="evenodd" clip-rule="evenodd" d="M12.626 0C19.593 0 25.25 5.657 25.25 12.626c0 6.968-5.657 12.625-12.626 12.625C5.658 25.251 0 19.594 0 12.625 0 5.658 5.657 0 12.626 0zm7.56 8.827a1.976 1.976 0 00-1.395-1.395c-1.23-.33-6.165-.33-6.165-.33s-4.936 0-6.167.33a1.977 1.977 0 00-1.395 1.395c-.33 1.23-.33 3.799-.33 3.799s0 2.568.33 3.798c.182.68.717 1.214 1.395 1.396 1.231.33 6.167.33 6.167.33s4.935 0 6.165-.33a1.976 1.976 0 001.396-1.396c.33-1.23.33-3.798.33-3.798s0-2.568-.33-3.8zm-9.139 6.166v-4.735l4.1 2.368-4.1 2.367z" fill="#000"/></svg>