<?xml version="1.0" standalone="no"?>
<!DOCTYPE svg PUBLIC "-//W3C//DTD SVG 20010904//EN"
 "http://www.w3.org/TR/2001/REC-SVG-20010904/DTD/svg10.dtd">
<svg version="1.0" xmlns="http://www.w3.org/2000/svg"
 width="502.000000pt" height="502.000000pt" viewBox="0 0 502.000000 502.000000"
 preserveAspectRatio="xMidYMid meet">
<metadata>
Created by potrace 1.14, written by Peter Selinger 2001-2017
</metadata>
<g transform="translate(0.000000,502.000000) scale(0.100000,-0.100000)"
fill="#000000" stroke="none">
<path d="M0 2510 l0 -1930 2510 0 2510 0 0 1219 c0 1149 -1 1220 -18 1224 -16
4 -16 5 1 6 9 0 17 6 17 11 0 6 -8 10 -17 8 -14 -2 -19 5 -21 35 -3 32 0 37
17 37 21 0 21 0 21 660 l0 660 -2510 0 -2510 0 0 -1930z m2777 1884 c-3 -3
-12 -4 -19 -1 -8 3 -5 6 6 6 11 1 17 -2 13 -5z m23 -9 c0 -8 -4 -15 -10 -15
-5 0 -7 7 -4 15 4 8 8 15 10 15 2 0 4 -7 4 -15z m70 -155 c0 -27 -3 -30 -30
-30 -27 0 -30 3 -30 30 0 27 3 30 30 30 27 0 30 -3 30 -30z m-870 -65 c0 -32
2 -35 29 -35 29 0 30 -1 36 -65 7 -63 8 -65 36 -65 26 0 29 -4 29 -31 0 -44
28 -99 51 -99 15 0 19 -7 19 -40 0 -38 -2 -40 -29 -40 -29 0 -30 -1 -36 -65
-7 -63 -8 -65 -35 -65 -27 0 -28 -2 -35 -65 -6 -64 -7 -65 -36 -65 -27 0 -29
-2 -29 -40 0 -22 -5 -40 -11 -40 -5 0 -7 -4 -4 -10 3 -5 1 -10 -4 -10 -6 0
-11 5 -11 10 0 6 -5 10 -10 10 -6 0 -9 -3 -9 -7 1 -5 1 -15 -1 -23 -1 -11 -4
-9 -11 5 -8 18 -9 18 -8 -5 1 -14 1 -42 0 -62 -1 -36 -2 -38 -36 -38 -29 0
-34 -3 -33 -22 0 -13 0 -42 -1 -65 -1 -40 -3 -43 -30 -43 -29 0 -29 -1 -36
-70 -7 -69 -7 -70 -36 -70 -26 0 -29 -3 -29 -35 0 -33 -2 -35 -35 -35 l-35 0
0 -64 0 -65 -32 -3 c-35 -3 -35 -1 -37 -100 -1 -37 -2 -38 -37 -38 -28 0 -35
-4 -33 -17 1 -10 1 -39 0 -65 -1 -46 -2 -48 -31 -48 -28 0 -30 -3 -30 -35 0
-33 -2 -35 -35 -35 l-35 0 0 -70 0 -70 -35 0 -35 0 0 -65 0 -65 -35 0 -35 0 0
-65 0 -65 -29 0 c-27 0 -30 -3 -33 -37 -3 -35 -6 -38 -35 -41 l-33 -3 0 -65 0
-64 -35 0 -35 0 0 -64 0 -65 -32 -3 c-33 -3 -33 -3 -36 -66 -3 -61 -3 -62 -32
-62 -28 0 -30 -2 -30 -41 l0 -41 133 4 132 3 3 33 c3 28 7 32 33 32 27 0 29 3
29 35 0 35 10 41 55 36 6 0 12 27 13 61 2 34 6 66 8 70 3 4 18 8 35 8 l29 0 0
65 0 65 29 0 c29 0 30 1 36 65 7 62 8 65 35 65 26 0 27 3 36 68 8 62 11 67 34
67 22 0 25 5 28 38 3 35 5 37 38 37 l34 0 0 65 0 65 30 0 c17 0 31 6 32 13 0
6 2 17 3 22 2 6 3 31 4 58 1 45 2 47 30 47 28 0 29 2 36 65 6 63 8 65 35 65
27 0 28 2 35 65 6 64 7 65 36 65 27 0 29 2 29 40 0 38 2 40 29 40 29 0 30 1
36 65 7 63 8 65 35 65 27 0 28 2 35 65 6 63 8 65 35 65 27 0 28 2 34 70 7 69
8 70 37 70 26 0 29 3 29 34 0 30 3 35 28 38 20 2 28 9 30 28 2 24 2 25 -10 4
-7 -12 -19 -19 -26 -17 -8 3 -1 14 18 31 22 19 30 35 30 59 l0 33 65 0 65 0 0
-34 c0 -45 9 -68 24 -59 17 11 36 12 36 3 0 -5 -10 -10 -22 -12 -14 -2 -24
-11 -25 -23 -2 -11 0 -14 3 -7 3 6 11 9 17 5 7 -4 17 -8 22 -8 6 0 11 -17 13
-37 3 -36 5 -38 38 -38 l34 0 0 -64 0 -65 33 -3 32 -3 3 -67 c3 -68 3 -68 32
-68 25 0 29 -4 32 -32 3 -29 7 -33 36 -36 l32 -3 0 -65 0 -64 35 0 35 0 0 -70
c0 -65 1 -69 23 -68 45 2 47 -1 47 -52 0 -27 5 -50 10 -50 6 0 10 5 10 12 0 9
3 9 11 1 13 -13 3 -36 -12 -28 -5 4 -9 1 -9 -5 0 -6 10 -10 23 -8 19 3 22 -2
25 -34 3 -36 5 -38 37 -38 l34 0 3 -67 c2 -51 6 -67 17 -65 7 1 22 0 32 -3 16
-5 19 -16 19 -71 l0 -64 35 0 c33 0 35 -2 35 -35 0 -32 2 -35 30 -35 29 0 30
-2 32 -47 0 -27 1 -56 0 -65 -1 -14 6 -18 33 -18 l35 0 0 -70 0 -70 35 0 c33
0 35 -2 35 -35 0 -32 2 -35 29 -35 29 0 30 -1 36 -65 7 -62 8 -65 35 -65 26 0
27 -3 36 -67 8 -63 11 -68 34 -68 23 0 26 -4 34 -67 8 -66 9 -68 37 -68 26 0
29 -3 29 -35 0 -32 3 -35 29 -35 26 0 29 -3 35 -46 3 -26 6 -57 6 -70 l0 -24
-945 0 -945 0 0 35 c0 32 2 35 30 35 l29 0 3 73 3 72 33 -3 c22 -1 32 2 31 10
-1 7 -1 38 0 68 1 53 2 55 29 56 15 0 258 1 540 2 l512 2 0 94 0 95 -32 3
c-30 3 -33 6 -36 41 -3 34 -6 37 -33 37 -27 0 -29 2 -30 43 -1 23 -2 51 -3 62
-1 15 -9 21 -33 23 l-33 3 0 65 0 64 -35 0 c-34 0 -35 1 -35 43 0 60 -10 88
-29 85 -27 -4 -41 12 -41 48 0 31 -3 34 -29 34 -28 0 -29 2 -36 65 -6 64 -7
65 -36 65 -27 0 -29 3 -31 38 -1 20 -1 49 0 65 2 25 -1 27 -33 27 -34 0 -35 1
-35 40 0 38 -2 40 -29 40 -29 0 -30 1 -36 65 l-7 65 -64 0 -64 0 0 -65 c0 -68
0 -68 -52 -68 -15 0 -18 -10 -18 -68 l0 -69 -35 0 -35 0 0 -65 0 -65 -30 0
c-19 0 -30 -5 -31 -15 -1 -8 -3 -19 -4 -25 -1 -5 -3 -17 -4 -25 -1 -10 -12
-15 -31 -15 l-30 0 0 -65 0 -65 -35 0 -35 0 0 -64 0 -65 -32 -3 -33 -3 -3 -67
c-3 -68 -3 -68 -32 -68 -26 0 -30 -4 -30 -29 0 -31 -13 -47 -44 -52 -11 -2
-21 -11 -24 -19 -4 -12 -2 -13 9 -3 7 7 18 13 23 13 6 0 0 -7 -12 -16 -16 -11
-22 -25 -22 -55 0 -38 -1 -39 -35 -39 l-35 0 0 -70 0 -70 -35 0 -35 0 0 -64 0
-65 -32 -3 c-33 -3 -33 -3 -36 -65 -3 -62 -3 -63 -32 -63 -26 0 -29 -4 -32
-37 -3 -36 -5 -38 -40 -41 -31 -3 -38 -7 -39 -25 -1 -21 -1 -21 -7 -2 -5 13
-18 21 -36 23 -22 3 -27 0 -23 -11 3 -7 1 -20 -4 -28 -7 -11 -9 -10 -9 6 -1
19 -1 19 -13 -1 -7 -12 -17 -19 -24 -17 -8 3 -3 13 14 29 20 18 22 24 9 24 -9
0 -16 -7 -16 -16 0 -13 -6 -15 -27 -9 -15 3 -31 12 -35 18 -4 7 -6 -2 -4 -20
2 -21 -1 -30 -9 -27 -7 3 -11 17 -9 32 2 15 1 20 -2 11 -3 -9 -24 -20 -47 -26
-23 -6 -51 -14 -62 -18 -16 -5 -17 -5 -5 4 15 10 23 51 10 51 -15 0 -19 -14
-9 -27 9 -10 8 -13 -5 -13 -9 0 -16 -4 -16 -10 0 -7 -142 -10 -405 -10 l-405
0 0 30 c0 26 3 30 29 30 29 0 29 1 36 70 7 68 8 70 35 70 27 0 28 2 35 65 6
63 8 65 35 65 27 0 28 2 34 70 7 69 8 70 37 70 27 0 29 3 29 35 0 32 2 35 29
35 29 0 30 1 36 65 7 63 8 65 35 65 27 0 28 2 35 70 7 69 7 70 36 70 26 0 29
3 29 34 0 19 7 39 17 47 11 10 14 10 9 2 -4 -7 -2 -13 3 -13 6 0 11 6 11 13 0
8 4 7 10 -3 5 -8 10 -10 11 -5 1 6 3 15 4 20 2 6 3 31 4 58 1 47 1 47 36 47
l35 0 0 70 0 70 34 0 c28 0 33 4 33 23 1 108 1 107 33 107 28 0 30 3 30 35 0
33 2 35 35 35 l35 0 0 70 0 70 35 0 35 0 0 65 0 65 36 0 c32 0 35 2 33 28 -1
15 -1 44 -1 65 2 34 4 37 31 37 27 0 30 3 33 38 3 34 6 37 36 40 l32 3 0 65 0
64 35 0 35 0 0 64 0 65 33 3 c26 2 32 7 33 28 4 107 2 100 33 100 27 0 30 3
33 38 3 34 6 37 36 40 l32 3 0 65 0 64 35 0 35 0 0 71 c0 61 2 70 18 68 50 -5
52 -2 52 66 l0 65 29 0 c30 0 45 21 39 51 -2 9 9 15 30 17 l32 3 0 65 0 64 35
0 35 0 0 70 0 70 35 0 c33 0 35 -2 35 -35z m900 -39 c0 -3 -4 -8 -10 -11 -5
-3 -10 -1 -10 4 0 6 5 11 10 11 6 0 10 -2 10 -4z m40 -16 c0 -5 -4 -10 -10
-10 -5 0 -10 5 -10 10 0 6 5 10 10 10 6 0 10 -4 10 -10z m-27 -24 c4 -10 0
-14 -14 -13 -22 1 -25 13 -6 20 6 3 13 6 13 6 1 1 4 -5 7 -13z m-718 -186 c0
-7 -7 -15 -15 -18 -8 -3 -12 -1 -8 3 4 5 3 14 -3 21 -7 9 -6 12 8 10 10 -2 18
-9 18 -16z m875 -4 c0 -15 -7 -26 -19 -29 -25 -6 -31 0 -31 30 0 18 5 23 25
23 20 0 25 -5 25 -24z m63 -124 c3 7 4 3 4 -9 -1 -12 -5 -19 -9 -17 -4 3 -8 0
-8 -5 0 -6 -4 -11 -9 -11 -4 0 -7 12 -5 28 2 15 1 19 -2 10 -3 -10 -10 -18
-15 -18 -6 0 -5 9 2 22 11 20 12 20 24 4 10 -13 14 -14 18 -4z m627 -147 c0
-32 2 -35 30 -35 28 0 30 -3 30 -35 0 -33 2 -35 35 -35 l35 0 0 -64 0 -65 33
-3 32 -3 3 -66 3 -66 64 -1 65 -1 0 69 0 70 35 0 c33 0 35 2 35 35 0 25 4 35
16 35 27 0 45 28 51 80 5 47 8 50 34 50 24 0 28 4 31 33 l3 32 173 3 172 2 -2
-607 -3 -608 -137 -3 -138 -3 -1 58 c-1 32 -1 62 0 67 1 5 -5 6 -13 3 -9 -4
-19 -1 -22 5 -5 8 -10 5 -16 -8 -8 -18 -8 -18 -5 1 2 15 9 19 28 17 25 -3 26
-1 25 42 -1 52 -17 76 -39 57 -12 -9 -14 -7 -14 14 0 30 14 42 30 25 9 -10 8
-12 -5 -7 -10 4 -18 2 -18 -3 0 -6 4 -10 9 -10 5 0 15 -2 23 -5 9 -4 14 4 14
25 1 16 -2 30 -7 30 -5 0 -9 5 -9 11 0 5 5 7 10 4 6 -3 10 1 10 9 0 12 -7 14
-32 9 -23 -5 -29 -3 -24 6 5 7 14 10 22 7 18 -7 35 26 32 64 -1 20 -7 29 -15
26 -7 -3 -16 0 -19 6 -5 8 -10 5 -16 -8 -8 -18 -8 -18 -5 1 2 15 9 19 28 17
25 -3 26 -1 25 42 -1 52 -17 76 -39 57 -12 -9 -14 -7 -14 15 0 14 2 22 6 16 3
-5 16 -12 28 -16 17 -5 21 -3 19 11 -2 9 -9 19 -16 21 -7 3 -10 0 -6 -7 4 -6
3 -11 -3 -11 -5 0 -13 5 -16 10 -3 6 -24 10 -46 10 l-39 0 0 -65 0 -65 -35 0
c-33 0 -35 -2 -35 -35 0 -21 -5 -35 -12 -36 -7 -1 -20 -2 -28 -3 -11 -1 -18
-20 -24 -68 l-9 -68 -62 0 -63 0 -7 65 c-6 64 -7 65 -36 65 -27 0 -29 2 -29
40 0 39 -1 40 -35 40 l-35 0 0 65 0 65 -35 0 c-34 0 -43 12 -36 53 1 9 -46 9
-53 -1 -3 -6 -10 -272 -7 -309 1 -8 14 -13 31 -13 27 0 30 -3 30 -30 0 -27 -3
-30 -30 -30 -27 0 -30 3 -30 30 0 28 -3 30 -35 30 l-35 0 0 70 0 70 -35 0 -35
0 0 65 0 65 -29 0 c-29 0 -30 1 -36 65 -7 63 -8 65 -36 65 -26 0 -29 3 -29 35
0 21 -5 35 -12 36 -7 1 -22 2 -33 3 -18 1 -20 9 -23 69 l-3 67 -36 0 c-28 0
-34 3 -29 16 3 9 6 22 6 30 0 9 11 14 30 14 27 0 30 -3 30 -30 0 -27 3 -30 30
-30 l30 0 0 135 0 135 175 0 175 0 0 -35z m-528 -67 c-9 -9 -12 -7 -12 12 0
19 3 21 12 12 9 -9 9 -15 0 -24z m39 23 c7 11 9 10 9 -3 0 -10 -7 -18 -15 -18
-8 0 -15 8 -14 18 0 12 2 13 6 3 5 -11 7 -11 14 0z m4 -41 c3 -5 1 -10 -4 -10
-6 0 -11 5 -11 10 0 6 2 10 4 10 3 0 8 -4 11 -10z m901 -58 c-10 -11 -16 -12
-16 -4 0 7 5 12 10 12 6 0 10 8 11 18 0 11 2 13 6 4 3 -8 -2 -21 -11 -30z
m-1946 -44 c0 -4 -7 -8 -15 -8 -8 0 -15 4 -15 8 0 5 7 9 15 9 8 0 15 -4 15 -9z
m-269 -41 c-10 -9 -11 -8 -5 6 3 10 9 15 12 12 3 -3 0 -11 -7 -18z m1754 -317
c3 -5 1 -10 -4 -10 -6 0 -11 5 -11 10 0 6 2 10 4 10 3 0 8 -4 11 -10z m1285
-80 c0 -5 -2 -10 -4 -10 -3 0 -8 5 -11 10 -3 6 -1 10 4 10 6 0 11 -4 11 -10z
m-655 -20 c-3 -5 -11 -10 -16 -10 -6 0 -7 5 -4 10 3 6 11 10 16 10 6 0 7 -4 4
-10z m5 -47 c0 -5 -12 -9 -27 -10 -19 -1 -22 1 -12 8 17 11 39 12 39 2z m0
-96 c0 -5 -4 -5 -10 -2 -5 3 -10 14 -10 23 0 15 2 15 10 2 5 -8 10 -19 10 -23z
m-31 -1 c7 -8 8 -17 3 -20 -6 -3 -12 3 -15 14 -6 24 -4 25 12 6z m11 -70 c0
-2 -7 -7 -16 -10 -8 -3 -12 -2 -9 4 6 10 25 14 25 6z m15 -106 c-3 -5 -11 -10
-16 -10 -6 0 -7 5 -4 10 3 6 11 10 16 10 6 0 7 -4 4 -10z m-1408 -52 c-3 -7
-5 -2 -5 12 0 14 2 19 5 13 2 -7 2 -19 0 -25z m883 2 c0 -27 -3 -30 -30 -30
-27 0 -30 3 -30 30 0 27 3 30 30 30 27 0 30 -3 30 -30z m530 3 c0 -5 -12 -9
-27 -10 -19 -1 -22 1 -12 8 17 11 39 12 39 2z m0 -96 c0 -5 -4 -5 -10 -2 -5 3
-10 14 -10 23 0 15 2 15 10 2 5 -8 10 -19 10 -23z m-478 -56 c-6 -14 -7 -13
-10 2 -4 18 -4 18 -18 0 -7 -10 -14 -13 -14 -6 0 6 7 19 16 28 20 19 37 3 26
-24z m148 -191 c0 -27 -3 -30 -30 -30 -27 0 -30 3 -30 30 0 27 3 30 30 30 27
0 30 -3 30 -30z m-1300 -75 c9 -10 9 -15 1 -15 -6 0 -11 5 -11 11 0 6 -7 8
-16 5 -8 -3 -12 -2 -9 4 9 14 21 12 35 -5z m1340 -37 c0 -4 -7 -8 -15 -8 -8 0
-15 4 -15 8 0 5 7 9 15 9 8 0 15 -4 15 -9z m25 -17 c1 -11 -4 -17 -11 -14 -6
2 -9 13 -7 24 6 23 16 17 18 -10z m-3345 -61 c0 -5 -2 -10 -4 -10 -3 0 -8 5
-11 10 -3 6 -1 10 4 10 6 0 11 -4 11 -10z m3447 -162 c-3 -8 -6 -5 -6 6 -1 11
2 17 5 13 3 -3 4 -12 1 -19z m103 -118 c0 -27 -3 -30 -30 -30 -27 0 -30 3 -30
30 0 27 3 30 30 30 27 0 30 -3 30 -30z m-2985 -50 c3 -5 1 -10 -4 -10 -6 0
-11 5 -11 10 0 6 2 10 4 10 3 0 8 -4 11 -10z m-28 -20 c1 -11 -2 -20 -7 -20
-6 0 -7 17 -1 38 3 8 7 -1 8 -18z m3073 -77 c0 -5 -12 -9 -27 -10 -19 -1 -22
1 -12 8 17 11 39 12 39 2z m-2440 -196 c0 -2 -8 -3 -18 -3 -10 0 -19 6 -19 13
0 8 6 9 19 2 10 -5 18 -11 18 -12z m2555 3 c3 -6 -1 -7 -9 -4 -18 7 -21 14 -7
14 6 0 13 -4 16 -10z m95 -130 c0 -27 -3 -30 -30 -30 -27 0 -30 3 -30 30 0 27
3 30 30 30 27 0 30 -3 30 -30z m-3200 -136 c0 -2 -7 -4 -15 -4 -8 0 -15 4 -15
10 0 5 7 7 15 4 8 -4 15 -8 15 -10z m-125 -22 c-3 -3 -11 0 -18 7 -9 10 -8 11
6 5 10 -3 15 -9 12 -12z m132 -8 c-3 -3 -12 -4 -19 -1 -8 3 -5 6 6 6 11 1 17
-2 13 -5z m3288 -44 c3 -5 1 -10 -4 -10 -6 0 -11 5 -11 10 0 6 2 10 4 10 3 0
8 -4 11 -10z m42 -16 c-3 -3 -12 -4 -19 -1 -8 3 -5 6 6 6 11 1 17 -2 13 -5z
m63 -114 c0 -25 -4 -30 -25 -30 -21 0 -25 5 -25 30 0 25 4 30 25 30 21 0 25
-5 25 -30z"/>
<path d="M1100 1204 c0 -14 43 -11 48 4 2 7 -6 11 -22 10 -14 -1 -26 -7 -26
-14z"/>
<path d="M1220 1216 c0 -2 9 -6 20 -9 11 -3 20 -1 20 4 0 5 -9 9 -20 9 -11 0
-20 -2 -20 -4z"/>
</g>
</svg>
